<?xml version="1.0" encoding="UTF-8"?>
<svg id="_레이어_1" data-name="레이어_1" xmlns="http://www.w3.org/2000/svg" version="1.1" viewBox="0 0 230 34">
  <!-- Generator: Adobe Illustrator 29.8.4, SVG Export Plug-In . SVG Version: 2.1.1 Build 6)  -->
  <defs>
    <style>
      .st0 {
        fill: #0267ff;
      }
    </style>
  </defs>
  <path class="st0" d="M65.37,0c-9.37,0-17,7.63-17,17s7.63,17,17,17,17-7.63,17-17S74.74,0,65.37,0ZM65.37,26.92c-5.47,0-9.92-4.45-9.92-9.92s4.45-9.92,9.92-9.92,9.92,4.45,9.92,9.92-4.45,9.92-9.92,9.92Z"/>
  <path class="st0" d="M17.17,0C7.79,0,.17,7.63.17,17s7.63,17,17,17,17-7.63,17-17S26.54,0,17.17,0ZM17.17,26.92c-5.47,0-9.92-4.45-9.92-9.92s4.45-9.92,9.92-9.92,9.92,4.45,9.92,9.92-4.45,9.92-9.92,9.92Z"/>
  <rect class="st0" x="37.43" width="7.15" height="33.64"/>
  <rect class="st0" x="139.52" width="7.15" height="33.64"/>
  <path class="st0" d="M127.65,17.44c-.32,5.06-4.54,9.08-9.69,9.08h-11.34v7.08h11.34c9.03,0,16.39-7.08,16.75-16.11l.05-.6V0h-28.3v7.07h21.22l-.04,10.36Z"/>
  <polygon class="st0" points="101.79 14.51 92.78 14.51 92.78 7.07 101.79 7.07 101.79 0 85.64 0 85.64 33.64 92.78 33.64 92.78 21.59 101.79 21.59 101.79 14.51"/>
  <g>
    <path class="st0" d="M177.99,28.49v4.32h-23.64v-4.32h9.47v-3.78h-8.18v-13.9h21.07v13.9h-8.18v3.78h9.47ZM160.23,20.42h11.87v-5.28h-11.87v5.28Z"/>
    <path class="st0" d="M190.52,10.82h4.54v21.72h-13.6V10.82h4.54v6.87h4.51v-6.87ZM190.52,28.3v-6.4h-4.51v6.4h4.51ZM205.35,23.29h-2.74v10.34h-4.62V10.27h4.62v8.54h2.74v4.49Z"/>
    <path class="st0" d="M222.17,15.96c0,3.39-2.93,5.66-7.52,5.66s-7.52-2.27-7.52-5.66,2.93-5.66,7.52-5.66,7.52,2.3,7.52,5.66ZM229.59,29.5h-16.03v.93h16.28v3.2h-20.85v-6.98h16.03v-.93h-16.09v-3.2h20.65v6.98ZM211.7,15.96c0,1.23,1.18,2.02,2.95,2.02s2.95-.79,2.95-2.02-1.18-2.02-2.95-2.02-2.95.79-2.95,2.02ZM229.59,21.71h-4.62v-11.44h4.62v11.44Z"/>
  </g>
</svg>